<svg xmlns="http://www.w3.org/2000/svg" width="1000" height="1000"><path fill="#4C75A3" d="M500 0C223.857 0 0 223.867 0 500.01S223.857 1000 500 1000c276.123 0 500-223.848 500-499.99S776.123 0 500 0zm278.643 713.682l-90.82 1.27s-19.541 3.857-45.215-13.789c-33.965-23.32-66.025-83.965-90.996-76.035-25.303 8.027-24.502 62.578-24.502 62.578s.176 11.65-5.605 17.861c-6.27 6.748-18.545 8.115-18.545 8.115h-40.654s-89.697 5.391-168.701-76.855c-86.172-89.717-162.256-267.734-162.256-267.734s-4.375-11.665.381-17.31c5.371-6.343 19.941-6.758 19.941-6.758l97.197-.63s9.16 1.519 15.713 6.333c5.4 3.979 8.428 11.396 8.428 11.396s15.713 39.731 36.504 75.664c40.596 70.171 59.512 85.503 73.301 77.993 20.088-10.957 14.063-99.175 14.063-99.175s.371-32.017-10.107-46.284c-8.125-11.035-23.428-14.272-30.195-15.171-5.469-.732 3.516-13.428 15.146-19.126 17.5-8.564 48.369-9.048 84.883-8.677 28.418.288 36.611 2.061 47.715 4.746 33.516 8.091 22.148 39.331 22.148 114.282 0 23.989-4.326 57.754 12.998 68.945 7.432 4.805 25.645.723 71.201-76.621 21.563-36.646 37.764-79.731 37.764-79.731s3.525-7.69 9.033-10.977c5.605-3.359 13.193-2.334 13.193-2.334l102.285-.635s30.732-3.667 35.693 10.21c5.225 14.561-11.465 48.555-53.262 104.248-68.594 91.445-76.24 82.881-19.277 135.762 54.404 50.508 65.693 75.088 67.529 78.135 22.538 37.364-24.981 40.304-24.981 40.304z"/></svg>